<?xml version="1.0" encoding="UTF-8" standalone="no"?>
<!DOCTYPE svg PUBLIC "-//W3C//DTD SVG 1.1//EN" "http://www.w3.org/Graphics/SVG/1.1/DTD/svg11.dtd">
<svg width="100%" height="100%" viewBox="0 0 4725 4725" version="1.1" xmlns="http://www.w3.org/2000/svg" xmlns:xlink="http://www.w3.org/1999/xlink" xml:space="preserve" xmlns:serif="http://www.serif.com/" style="fill-rule:evenodd;clip-rule:evenodd;stroke-linejoin:round;stroke-miterlimit:2;">
    <g transform="matrix(0,-1.505068,1.599641,0,-1882.978356,6002.274221)">
        <path d="M3988.043,4130.544L849.041,4130.544L1633.792,1177.126L3203.293,1177.126L3988.043,4130.544Z" style="fill:url(#_Linear1);"/>
    </g>
    <g transform="matrix(0,-1.122657,1.245476,0,-1074.039923,5028.364778)">
        <path d="M3831.562,4130.544L1022.439,4130.544L1633.792,1089.446L3146.022,1089.446L3831.562,4130.544Z" style="fill:url(#_Linear2);"/>
    </g>
    <g transform="matrix(1,0,0,1,-553.831708,1688.814207)">
        <path d="M4358.479,2.908L4404.037,96.712C4223.901,120.402 4126.079,282.53 3945.2,254.133C2340.821,2.257 1622.372,493.22 836.671,1278.922L836.671,162.994C1994.234,-461.31 3226.673,-391.716 4358.479,2.908Z" style="fill:url(#_Linear3);"/>
    </g>
    <g transform="matrix(1.140291,1.589552,-1.126476,0.808096,1513.46468,-4225.088765)">
        <path d="M3241.317,4285.243L3241.152,4374.917C3241.06,4424.739 3212.287,4465.083 3176.938,4464.953C3141.588,4464.824 3112.963,4424.271 3113.055,4374.449L3113.226,4281.436L3084.978,4280.597L3026.122,1911.087L2996.501,1686.153L3140.138,1145.158L3193.208,1145.158L3346.457,1686.153L3314.816,1887.608L3270.253,4286.102L3241.317,4285.243Z" style="fill:url(#_Linear4);"/>
    </g>
    <g transform="matrix(1.140291,1.589552,-1.126476,0.808096,1513.46468,-4225.088765)">
        <path d="M3188.339,4463.567L3173.464,4304.837L3184.141,1815.881L3169.82,1659.766L3175.217,1145.158L3193.208,1145.158L3346.457,1686.153L3314.816,1887.608L3270.253,4286.102L3241.317,4285.243L3241.152,4374.917C3241.071,4419.256 3218.272,4456.089 3188.339,4463.567Z" style="fill:url(#_Linear5);"/>
    </g>
    <path d="M3766.56,1743.266L3114.416,2000.648L2903.392,2217.303L282.839,4178.026L258.979,4146.121L2865.282,2170.491L3061.055,1948.115L3766.56,1743.266Z" style="fill:white;"/>
    <path d="M258.979,4203.386L282.839,4234.088L179.982,4299.992C179.982,4299.992 141.498,4324.69 116.878,4366.85C113.54,4336.701 123.536,4307.662 146.75,4279.725L258.979,4203.386Z" style="fill:white;"/>
    <defs>
        <linearGradient id="_Linear1" x1="0" y1="0" x2="1" y2="0" gradientUnits="userSpaceOnUse" gradientTransform="matrix(2196.431241,2866.092671,-3046.188279,2066.574652,1613.763881,1177.125647)"><stop offset="0" style="stop-color:rgb(0,108,132);stop-opacity:1"/><stop offset="1" style="stop-color:black;stop-opacity:1"/></linearGradient>
        <linearGradient id="_Linear2" x1="0" y1="0" x2="1" y2="0" gradientUnits="userSpaceOnUse" gradientTransform="matrix(2099.462352,2963.959369,-3288.218059,1892.429576,1544.526246,1001.347348)"><stop offset="0" style="stop-color:rgb(0,150,222);stop-opacity:1"/><stop offset="1" style="stop-color:rgb(0,225,134);stop-opacity:1"/></linearGradient>
        <linearGradient id="_Linear3" x1="0" y1="0" x2="1" y2="0" gradientUnits="userSpaceOnUse" gradientTransform="matrix(-2617.040074,-176.189902,176.189902,-2617.040074,3429.8506,489.508766)"><stop offset="0" style="stop-color:rgb(177,255,207);stop-opacity:1"/><stop offset="1" style="stop-color:rgb(192,251,148);stop-opacity:1"/></linearGradient>
        <linearGradient id="_Linear4" x1="0" y1="0" x2="1" y2="0" gradientUnits="userSpaceOnUse" gradientTransform="matrix(306.389718,-1.152568,0.816796,432.341532,3035.649242,2319.42929)"><stop offset="0" style="stop-color:rgb(243,97,62);stop-opacity:1"/><stop offset="1" style="stop-color:rgb(193,38,0);stop-opacity:1"/></linearGradient>
        <linearGradient id="_Linear5" x1="0" y1="0" x2="1" y2="0" gradientUnits="userSpaceOnUse" gradientTransform="matrix(-182.625431,1.882817,-1.334306,-257.699765,3346.18409,2097.612819)"><stop offset="0" style="stop-color:rgb(201,37,13);stop-opacity:1"/><stop offset="1" style="stop-color:rgb(120,16,0);stop-opacity:1"/></linearGradient>
    </defs>
</svg>
